<svg width="127" height="32" viewBox="0 0 127 32" fill="none" xmlns="http://www.w3.org/2000/svg">
<path d="M12.5986 0.101075L0.0270574 21.9578C-0.0502435 22.0926 0.0473998 22.2641 0.202002 22.2641H25.3451C25.5038 22.2641 25.6015 22.0926 25.5201 21.9578L12.9485 0.101075C12.8712 -0.0336917 12.6759 -0.0336917 12.5946 0.101075H12.5986Z" fill="#ED6203"/>
<path d="M3.95703 14.8805L9.20536 21.1573L18.6646 9.79199L9.20536 17.5309L3.95703 14.8805Z" fill="white"/>
<path d="M36.7443 22.1377V20.8268H36.7118C36.4799 21.2679 36.0974 21.6068 35.5604 21.8355C35.1006 22.0356 34.5921 22.1337 34.0388 22.1337C32.6596 22.1337 31.5407 21.6558 30.6823 20.7043C29.8564 19.7773 29.4414 18.6175 29.4414 17.2208C29.4414 15.8241 29.8645 14.6929 30.7067 13.7618C31.5814 12.798 32.6921 12.3161 34.0388 12.3161C34.588 12.3161 35.0925 12.4182 35.5522 12.6224C36.0689 12.847 36.4554 13.1778 36.7118 13.6066H36.7443V12.312H39.4824V22.1296H36.7443V22.1377ZM36.0934 15.5546C35.658 15.1135 35.1088 14.893 34.4416 14.893C33.7743 14.893 33.2373 15.1258 32.806 15.5873C32.387 16.0365 32.1795 16.5919 32.1795 17.2616C32.1795 17.9314 32.3951 18.4459 32.8304 18.8952C33.2739 19.3485 33.8191 19.5731 34.4578 19.5731C35.0966 19.5731 35.6662 19.3485 36.1015 18.9033C36.5287 18.4582 36.7443 17.8987 36.7443 17.229C36.7443 16.5592 36.5287 15.9997 36.0934 15.5546Z" fill="#050505"/>
<path d="M46.3475 15.399C45.6436 15.4195 45.1351 15.5297 44.8178 15.7217C44.3987 15.9789 44.1912 16.4363 44.1912 17.0857V22.1374H41.4531V12.3198H44.0203V13.9289H44.061C44.4963 13.0672 45.2571 12.3198 46.3475 12.3198V15.399Z" fill="#050505"/>
<path d="M55.5583 20.8387C54.594 21.7902 53.3938 22.2639 51.9495 22.2639C50.5052 22.2639 49.3091 21.7902 48.3489 20.8387C47.3806 19.8871 46.8965 18.6947 46.8965 17.2571C46.8965 15.8196 47.3806 14.619 48.3489 13.6674C49.305 12.7159 50.5052 12.2422 51.9495 12.2422C53.3938 12.2422 54.594 12.7159 55.5583 13.6674C56.5266 14.619 57.0107 15.8155 57.0107 17.2571C57.0107 18.6987 56.5266 19.8871 55.5583 20.8387ZM53.5688 15.5909C53.1334 15.1172 52.5964 14.8763 51.9495 14.8763C51.3026 14.8763 50.7737 15.1131 50.3384 15.5909C49.9153 16.0483 49.7037 16.6037 49.7037 17.2571C49.7037 17.9106 49.9153 18.4578 50.3384 18.9234C50.7737 19.393 51.3108 19.6258 51.9495 19.6258C52.5883 19.6258 53.1334 19.3889 53.5688 18.9234C53.9919 18.4578 54.2035 17.9024 54.2035 17.2571C54.2035 16.6119 53.9919 16.0483 53.5688 15.5909Z" fill="#050505"/>
<path d="M67.0755 20.6919C66.2171 21.6557 65.0901 22.1376 63.6946 22.1376C63.1738 22.1376 62.6816 22.0355 62.2137 21.8313C61.6766 21.5944 61.2983 21.2677 61.0786 20.8471H61.046V22.1417H58.4219V9.57568H61.16V13.3655C61.8109 12.6712 62.6938 12.3241 63.8167 12.3241C64.4554 12.3241 65.0982 12.4752 65.741 12.7774C66.5995 13.1776 67.2505 13.7739 67.6898 14.5702C68.1089 15.3176 68.3164 16.1874 68.3164 17.1798C68.3164 18.5969 67.9014 19.769 67.0755 20.696V20.6919ZM64.9355 15.5871C64.5002 15.1256 63.9672 14.8928 63.3325 14.8928C62.6978 14.8928 62.1445 15.1175 61.7051 15.5626C61.2739 16.0077 61.0623 16.5591 61.0623 17.2125C61.0623 17.8659 61.2657 18.4335 61.6726 18.8868C62.0916 19.3442 62.6287 19.5729 63.2837 19.5729C63.9387 19.5729 64.4839 19.3483 64.9274 18.895C65.3627 18.4417 65.5783 17.8863 65.5783 17.2288C65.5783 16.5713 65.3627 16.0404 64.9355 15.5871Z" fill="#050505"/>
<path d="M81.4787 22.1377V20.8431H81.4461C81.1776 21.3005 80.783 21.6395 80.2622 21.8518C79.8228 22.0397 79.3061 22.1336 78.7081 22.1336C77.341 22.1336 76.2263 21.6558 75.3678 20.6961C74.5419 19.7691 74.127 18.6134 74.127 17.2208C74.127 15.8282 74.5379 14.7051 75.3597 13.7781C76.2181 12.8143 77.3166 12.3324 78.6592 12.3324C79.7414 12.3324 80.6406 12.7 81.3485 13.431V9.58398H84.0866V22.1336H81.4787V22.1377ZM80.8399 15.5627C80.4005 15.1258 79.8513 14.9093 79.1881 14.9093C78.525 14.9093 77.9717 15.1258 77.5282 15.5546C77.0807 15.9915 76.861 16.5429 76.861 17.2126C76.861 17.8824 77.0725 18.45 77.4956 18.8951C77.9269 19.3485 78.4761 19.5731 79.1556 19.5731C79.835 19.5731 80.3965 19.3485 80.8399 18.9033C81.2753 18.4541 81.4909 17.8946 81.4909 17.2126C81.4909 16.5306 81.2753 15.9997 80.8399 15.5627Z" fill="#050505"/>
<path d="M86.2422 22.1375V19.3237H89.0901V22.1375H86.2422Z" fill="#050505"/>
<path d="M100.482 18.3478C100.218 19.4668 99.644 20.3816 98.753 21.0881C97.8661 21.7864 96.8449 22.1376 95.6854 22.1376C94.3184 22.1376 93.1589 21.6598 92.215 20.7083C91.267 19.7609 90.791 18.601 90.791 17.2248C90.791 15.8485 91.2548 14.7091 92.1824 13.7658C93.1182 12.8142 94.2614 12.3364 95.6203 12.3364C96.8042 12.3364 97.8457 12.6876 98.7449 13.3941C99.6562 14.1047 100.23 15.0399 100.466 16.1997H97.6952C97.2965 15.338 96.6171 14.9052 95.6488 14.9052C95.01 14.9052 94.4933 15.1379 94.1028 15.6076C93.7285 16.0486 93.5413 16.5918 93.5413 17.2411C93.5413 17.8905 93.7366 18.454 94.1272 18.891C94.534 19.3443 95.0629 19.5689 95.7139 19.5689C96.6089 19.5689 97.2721 19.1605 97.6952 18.3478H100.482Z" fill="#050505"/>
<path d="M110.088 20.8387C109.123 21.7902 107.923 22.2639 106.479 22.2639C105.035 22.2639 103.838 21.7902 102.878 20.8387C101.91 19.8871 101.426 18.6947 101.426 17.2571C101.426 15.8196 101.91 14.619 102.878 13.6674C103.834 12.7159 105.035 12.2422 106.479 12.2422C107.923 12.2422 109.123 12.7159 110.088 13.6674C111.056 14.619 111.54 15.8155 111.54 17.2571C111.54 18.6987 111.056 19.8871 110.088 20.8387ZM108.098 15.5909C107.663 15.1172 107.126 14.8763 106.479 14.8763C105.832 14.8763 105.303 15.1131 104.868 15.5909C104.445 16.0483 104.233 16.6037 104.233 17.2571C104.233 17.9106 104.445 18.4578 104.868 18.9234C105.303 19.393 105.84 19.6258 106.479 19.6258C107.118 19.6258 107.663 19.3889 108.098 18.9234C108.521 18.4578 108.733 17.9024 108.733 17.2571C108.733 16.6119 108.521 16.0483 108.098 15.5909Z" fill="#050505"/>
<path d="M124.258 22.1374V17.2572C124.258 16.6283 124.184 16.1627 124.034 15.8605C123.818 15.4358 123.428 15.2234 122.858 15.2234C122.288 15.2234 121.89 15.4113 121.642 15.7829C121.438 16.0892 121.336 16.5384 121.336 17.1224V22.1415H118.598V17.1469C118.598 16.5752 118.517 16.1382 118.35 15.8278C118.13 15.4235 117.756 15.2234 117.231 15.2234C116.654 15.2234 116.235 15.4276 115.982 15.836C115.783 16.1586 115.685 16.6324 115.685 17.2572V22.1374H112.947V12.3198H115.498V13.9289H115.539C115.559 13.9289 115.669 13.7042 115.685 13.6797C115.746 13.5776 115.816 13.4796 115.885 13.3816C115.999 13.2224 116.117 13.0631 116.263 12.9242C116.723 12.4873 117.313 12.3198 117.931 12.3198C119.103 12.3198 120.112 13.1815 120.702 14.276C121.389 13.1774 122.378 12.2872 123.741 12.3239C124.607 12.3484 125.437 12.769 126.04 13.3857C126.499 13.8594 126.764 14.5864 126.894 15.2112C126.943 15.4685 126.975 15.7748 126.992 16.126C126.996 16.2607 127 16.4241 127 16.6119V22.1374H124.262H124.258Z" fill="#050505"/>
<path d="M69.8418 11.8055V9.57568H72.5799V11.8055H69.8418ZM69.8418 22.1376V12.9408H72.5839V22.1376H69.8418Z" fill="#050505"/>
<path d="M51.2659 29.125H48.5034L47.9582 30.4074H46.9004L49.3862 24.8574H50.3952L52.8892 30.4074H51.8151L51.2618 29.125H51.2659ZM50.9282 28.3164L49.8866 25.8906L48.8533 28.3164H50.9282Z" fill="#050505"/>
<path d="M59.3942 30.4113L58.2632 28.7859C58.194 28.7941 58.1208 28.7941 58.0516 28.7941H56.8026V30.4113H55.7773V24.8613H58.0516C59.5041 24.8613 60.4032 25.6046 60.4032 26.8338C60.4032 27.6751 59.976 28.2918 59.2274 28.5858L60.4968 30.4072H59.3901L59.3942 30.4113ZM58.0028 25.7312H56.8026V27.9446H58.0028C58.9019 27.9446 59.3698 27.5322 59.3698 26.8338C59.3698 26.1355 58.906 25.7312 58.0028 25.7312Z" fill="#050505"/>
<path d="M61.1074 28.2919C61.1074 27.0218 62.0554 26.1274 63.3492 26.1274C64.6429 26.1274 65.599 27.0218 65.599 28.2919C65.599 29.562 64.6592 30.4645 63.3492 30.4645C62.0391 30.4645 61.1074 29.562 61.1074 28.2919ZM64.6063 28.2919C64.6063 27.4833 64.0693 26.9687 63.3492 26.9687C62.629 26.9687 62.1001 27.4833 62.1001 28.2919C62.1001 29.1005 62.6372 29.615 63.3492 29.615C64.0611 29.615 64.6063 29.1005 64.6063 28.2919Z" fill="#050505"/>
<path d="M70.0257 27.9284V30.4114H69.094V29.8968C68.858 30.2603 68.3983 30.4686 67.7677 30.4686C66.8035 30.4686 66.1973 29.9377 66.1973 29.1985C66.1973 28.4593 66.6733 27.9366 67.9508 27.9366H69.0411V27.8712C69.0411 27.2913 68.6953 26.9524 67.9915 26.9524C67.5195 26.9524 67.0272 27.1116 66.714 27.373L66.3275 26.6502C66.7791 26.303 67.4341 26.1274 68.1135 26.1274C69.33 26.1274 70.0338 26.7073 70.0338 27.9284H70.0257ZM69.0371 29.0841V28.5941H68.0199C67.3486 28.5941 67.1656 28.8473 67.1656 29.1577C67.1656 29.5129 67.4666 29.7457 67.9711 29.7457C68.4756 29.7457 68.8702 29.5252 69.0371 29.0882V29.0841Z" fill="#050505"/>
<path d="M75.4577 24.5264V30.4071H74.5098V29.8599C74.1802 30.2642 73.688 30.4643 73.1143 30.4643C71.8897 30.4643 70.9824 29.6067 70.9824 28.2917C70.9824 26.9767 71.8897 26.1272 73.1143 26.1272C73.6595 26.1272 74.1396 26.311 74.4732 26.699V24.5264H75.4618H75.4577ZM74.4894 28.2917C74.4894 27.4831 73.9443 26.9685 73.2323 26.9685C72.5203 26.9685 71.9751 27.4831 71.9751 28.2917C71.9751 29.1003 72.5203 29.6148 73.2323 29.6148C73.9443 29.6148 74.4894 29.1003 74.4894 28.2917Z" fill="#050505"/>
<path d="M81.4711 30.1786C81.2351 30.3705 80.8771 30.4644 80.5232 30.4644C79.5996 30.4644 79.0707 29.9744 79.0707 29.0392V27.0013H78.375V26.2091H79.0707V25.2412H80.0593V26.2091H81.1904V27.0013H80.0593V29.0147C80.0593 29.4271 80.2628 29.6477 80.6452 29.6477C80.8486 29.6477 81.048 29.5905 81.1985 29.4721L81.4752 30.1786H81.4711Z" fill="#050505"/>
<path d="M81.7949 28.2919C81.7949 27.0218 82.7429 26.1274 84.0366 26.1274C85.3304 26.1274 86.2865 27.0218 86.2865 28.2919C86.2865 29.562 85.3467 30.4645 84.0366 30.4645C82.7266 30.4645 81.7949 29.562 81.7949 28.2919ZM85.2938 28.2919C85.2938 27.4833 84.7568 26.9687 84.0366 26.9687C83.3165 26.9687 82.7876 27.4833 82.7876 28.2919C82.7876 29.1005 83.3247 29.615 84.0366 29.615C84.7486 29.615 85.2938 29.1005 85.2938 28.2919Z" fill="#050505"/>
<path d="M94.4243 28.9043C94.4243 29.8559 93.6798 30.4113 92.2599 30.4113H89.5137V24.8613H92.1053C93.4316 24.8613 94.1436 25.4249 94.1436 26.3029C94.1436 26.8747 93.8588 27.2953 93.4316 27.524C94.0256 27.7159 94.4284 28.1815 94.4284 28.9043H94.4243ZM90.5389 25.6699V27.2014H91.9914C92.7034 27.2014 93.1061 26.9482 93.1061 26.4418C93.1061 25.9354 92.7034 25.674 91.9914 25.674H90.5389V25.6699ZM93.3868 28.8022C93.3868 28.2468 92.9678 28.0018 92.1948 28.0018H90.5349V29.6027H92.1948C92.9678 29.6027 93.3868 29.3576 93.3868 28.8022Z" fill="#050505"/>
<path d="M95.291 24.8858C95.291 24.555 95.5595 24.2896 95.9216 24.2896C96.2837 24.2896 96.5522 24.5346 96.5522 24.8613C96.5522 25.2084 96.2919 25.4779 95.9216 25.4779C95.5514 25.4779 95.291 25.2166 95.291 24.8817V24.8858ZM95.4253 26.1763H96.4139V30.4071H95.4253V26.1763Z" fill="#050505"/>
<path d="M101.894 26.1764V29.7661C101.894 31.3058 101.096 32 99.6193 32C98.83 32 98.0489 31.7958 97.5648 31.3956L98.0082 30.6523C98.3784 30.9627 98.9806 31.1587 99.5624 31.1587C100.494 31.1587 100.905 30.7299 100.905 29.8764V29.6559C100.559 30.0357 100.059 30.2195 99.4932 30.2195C98.2849 30.2195 97.3613 29.3945 97.3613 28.1653C97.3613 26.936 98.2849 26.1274 99.4932 26.1274C100.087 26.1274 100.608 26.3194 100.954 26.7359V26.1724H101.894V26.1764ZM100.921 28.1653C100.921 27.4506 100.384 26.9687 99.6437 26.9687C98.9033 26.9687 98.3581 27.4506 98.3581 28.1653C98.3581 28.88 98.8951 29.3782 99.6437 29.3782C100.392 29.3782 100.921 28.8881 100.921 28.1653Z" fill="#050505"/>
<path d="M105.467 24.8615H107.883C109.678 24.8615 110.898 25.9723 110.898 27.6344C110.898 29.2966 109.674 30.4074 107.883 30.4074H105.467V24.8574V24.8615ZM107.835 29.5375C109.067 29.5375 109.865 28.7861 109.865 27.6344C109.865 26.4828 109.067 25.7314 107.835 25.7314H106.492V29.5375H107.835Z" fill="#050505"/>
<path d="M115.845 28.6101H112.537C112.655 29.2268 113.168 29.6229 113.904 29.6229C114.376 29.6229 114.751 29.4718 115.048 29.1614L115.577 29.7699C115.198 30.2232 114.604 30.4601 113.88 30.4601C112.468 30.4601 111.549 29.5494 111.549 28.2875C111.549 27.0256 112.472 26.123 113.73 26.123C114.987 26.123 115.861 26.9888 115.861 28.312C115.861 28.3896 115.853 28.5121 115.845 28.606V28.6101ZM112.525 27.9526H114.918C114.84 27.3441 114.372 26.9235 113.725 26.9235C113.079 26.9235 112.619 27.3359 112.525 27.9526Z" fill="#050505"/>
<path d="M120.219 27.9284V30.4114H119.287V29.8968C119.051 30.2603 118.592 30.4686 117.961 30.4686C116.997 30.4686 116.391 29.9377 116.391 29.1985C116.391 28.4593 116.863 27.9366 118.144 27.9366H119.234V27.8712C119.234 27.2913 118.889 26.9524 118.185 26.9524C117.713 26.9524 117.221 27.1116 116.907 27.373L116.521 26.6502C116.972 26.303 117.627 26.1274 118.307 26.1274C119.523 26.1274 120.227 26.7073 120.227 27.9284H120.219ZM119.23 29.0841V28.5941H118.213C117.542 28.5941 117.359 28.8473 117.359 29.1577C117.359 29.5129 117.66 29.7457 118.164 29.7457C118.669 29.7457 119.064 29.5252 119.23 29.0882V29.0841Z" fill="#050505"/>
<path d="M121.484 24.5264H122.473V30.4071H121.484V24.5264Z" fill="#050505"/>
<path d="M123.285 29.9906L123.664 29.2392C124.034 29.4842 124.604 29.6598 125.132 29.6598C125.755 29.6598 126.015 29.4842 126.015 29.1901C126.015 28.3815 123.407 29.1411 123.407 27.4545C123.407 26.6541 124.128 26.1313 125.263 26.1313C125.824 26.1313 126.463 26.2661 126.841 26.4948L126.463 27.2462C126.06 27.0094 125.657 26.9277 125.254 26.9277C124.656 26.9277 124.372 27.1278 124.372 27.4014C124.372 28.259 126.979 27.4954 126.979 29.1534C126.979 29.9457 126.251 30.4602 125.067 30.4602C124.363 30.4602 123.66 30.256 123.281 29.9865L123.285 29.9906Z" fill="#050505"/>
</svg>
