<svg preserveAspectRatio="none" width="100%" height="100%" overflow="visible" style="display: block;" viewBox="0 0 12.9167 12.9167" fill="none" xmlns="http://www.w3.org/2000/svg">
<path id="Shape" d="M0.122543 0.253157L0.183058 0.183058C0.404947 -0.0388305 0.752167 -0.0590021 0.996843 0.122543L1.06694 0.183058L6.45833 5.57417L11.8497 0.183058C12.0938 -0.0610194 12.4895 -0.0610194 12.7336 0.183058C12.9777 0.427136 12.9777 0.822864 12.7336 1.06694L7.3425 6.45833L12.7336 11.8497C12.9555 12.0716 12.9757 12.4188 12.7941 12.6635L12.7336 12.7336C12.5117 12.9555 12.1645 12.9757 11.9198 12.7941L11.8497 12.7336L6.45833 7.3425L1.06694 12.7336C0.822864 12.9777 0.427136 12.9777 0.183058 12.7336C-0.0610194 12.4895 -0.0610194 12.0938 0.183058 11.8497L5.57417 6.45833L0.183058 1.06694C-0.0388305 0.845053 -0.0590021 0.497833 0.122543 0.253157L0.183058 0.183058L0.122543 0.253157Z" fill="var(--fill-0, #6B7280)"/>
</svg>
