<svg preserveAspectRatio="none" width="100%" height="100%" overflow="visible" style="display: block;" viewBox="0 0 16.6667 13.3333" fill="none" xmlns="http://www.w3.org/2000/svg">
<path id="Shape" d="M2.70833 0H13.9583C15.4025 0 16.5827 1.13038 16.6624 2.55465L16.6667 2.70833V10.625C16.6667 12.0692 15.5363 13.2494 14.112 13.329L13.9583 13.3333H2.70833C1.26414 13.3333 0.0839618 12.203 0.00428736 10.7787L0 10.625V2.70833C0 1.26414 1.13038 0.0839616 2.55465 0.00428716L2.70833 0H13.9583H2.70833ZM15.4167 4.4775L8.62442 8.05307C8.46824 8.13527 8.28595 8.14702 8.1223 8.0883L8.04224 8.05307L1.25 4.47833V10.625C1.25 11.3901 1.83926 12.0177 2.58873 12.0785L2.70833 12.0833H13.9583C14.7235 12.0833 15.351 11.4941 15.4118 10.7446L15.4167 10.625V4.4775ZM13.9583 1.25H2.70833C1.94319 1.25 1.31567 1.83926 1.25483 2.58873L1.25 2.70833V3.06583L8.33333 6.79372L15.4167 3.065V2.70833C15.4167 1.94319 14.8274 1.31567 14.0779 1.25483L13.9583 1.25Z" fill="var(--fill-0, #ED6203)"/>
</svg>
