<svg preserveAspectRatio="none" width="100%" height="100%" overflow="visible" style="display: block;" viewBox="0 0 45.9291 36.0001" fill="none" xmlns="http://www.w3.org/2000/svg">
<g id="Group">
<path id="Vector" d="M25.7484 11.7273L22.3417 15.1503L22.173 15.3176L21.0906 16.4074L20.2828 17.219L19.2005 18.3065L19.034 18.4738L18.5615 18.9486L18.395 19.1182L16.7996 20.7189L16.6331 20.8884C16.1538 21.37 15.625 21.7634 15.0625 22.0754C14.779 22.2337 14.4865 22.3671 14.1894 22.4824C13.5256 22.7401 12.8303 22.8893 12.1283 22.9345C11.6985 22.9639 11.262 22.9526 10.8345 22.8984C9.90965 22.7876 9.00059 22.4914 8.17254 22.0076C7.81701 21.8018 7.45474 21.587 7.15097 21.2864C7.15097 21.2864 7.14947 21.2864 7.14647 21.2864C7.08122 21.223 7.01371 21.1552 6.94846 21.0874L0.744799 14.8564L0.61204 14.723C0.504033 14.6032 0.407277 14.4721 0.326271 14.3341C0.119258 13.9814 0 13.5745 0 13.1359C0 13.068 0 12.998 0.00900059 12.9324C0.0180012 12.8307 0.0337522 12.7334 0.0540035 12.6385C0.0630041 12.6 0.0720047 12.5639 0.0810053 12.5277C0.0855056 12.5119 0.0900059 12.496 0.0945062 12.4802C0.182262 12.1886 0.326271 11.9105 0.524284 11.664C0.578288 11.6007 0.632292 11.5374 0.690795 11.4764L0.801053 11.3679L7.40749 4.72766L11.4128 0.703293C12.3061 -0.194277 13.7282 -0.232712 14.6642 0.587988L25.7507 11.7273H25.7484Z" fill="var(--fill-0, #085CA8)"/>
<path id="Vector_2" d="M13.6899 26.6763C13.1566 26.6763 12.6323 26.5564 12.1283 26.3258L10.8592 25.053L10.5487 24.7432L10.4947 24.689L9.9029 24.0943L6.94396 21.0896C7.00921 21.1575 7.07671 21.2253 7.14197 21.2886C7.44349 21.5893 7.81026 21.8063 8.16804 22.0121C8.99609 22.4959 9.90515 22.7921 10.83 22.9029C11.2575 22.9571 11.694 22.9662 12.1238 22.939C12.8258 22.8938 13.5211 22.7446 14.1849 22.4869C14.482 22.3716 14.7745 22.2359 15.058 22.0799C15.6205 21.7679 16.1493 21.3722 16.6286 20.8929L16.7951 20.7256L18.3905 19.1227L18.557 18.9531L19.0295 18.4783L19.196 18.311L20.2783 17.2235L21.0861 16.4119L22.1685 15.3221L22.3372 15.1548L29.2002 8.25914L32.0309 5.17756C32.0309 5.17756 32.0421 5.16625 32.0489 5.15947L32.2019 5.00799C33.0659 4.13981 34.4678 4.13981 35.3318 5.00799L36.8822 6.56574L36.9339 6.61774C36.2476 6.58383 35.5568 6.83252 35.0371 7.34122L29.792 12.5232L29.738 12.5865L20.6114 21.6096L20.5979 21.5983L17.2361 24.9173L17.2136 24.9444C17.2136 24.9444 17.1326 25.0371 17.0111 25.157C16.7456 25.417 16.1943 25.9053 15.4518 26.258C15.1165 26.4185 14.7745 26.5316 14.4369 26.6039C14.2367 26.6446 14.0319 26.6695 13.8317 26.6785H13.6786L13.6899 26.6763Z" fill="var(--fill-0, #EB2227)"/>
<path id="Vector_3" d="M45.2797 18.1437L45.1132 18.3133L37.681 25.894L29.8752 33.8568C29.6254 34.1078 29.3667 34.3339 29.0899 34.5374C29.0809 34.5464 29.0697 34.5554 29.0584 34.5645C29.0202 34.5916 28.9842 34.6187 28.9437 34.6459C28.9392 34.6504 28.9347 34.6527 28.9302 34.6572C27.7533 35.5027 26.3087 36.0001 24.7539 36.0001C22.8323 36.0001 21.0861 35.2427 19.7946 34.0083C19.7946 34.0083 19.7931 34.0068 19.7901 34.0038C19.7315 33.9518 19.673 33.902 19.6168 33.8478L18.2735 32.498L14.5022 28.7065L13.2444 27.4427L13.0689 27.2664C13.2736 27.3003 13.4806 27.3161 13.6877 27.3161H13.8609C14.1017 27.3048 14.3424 27.2754 14.5765 27.2279C14.9612 27.1488 15.3528 27.0154 15.7353 26.8345C16.5588 26.4434 17.1754 25.9008 17.4679 25.6114C17.5827 25.4984 17.6682 25.4034 17.7042 25.3604L20.6046 22.4959L20.6159 22.5095L30.5908 12.6498L30.6448 12.5865L35.4893 7.79566C36.1419 7.15583 37.1612 7.07218 37.9015 7.58314L39.0491 8.73618L45.2797 14.9966C45.3337 15.0508 45.3877 15.1096 45.4372 15.1684C46.1415 16.0433 46.0898 17.3321 45.2797 18.1437Z" fill="var(--fill-0, #EB2227)"/>
<g id="Group_2">
<path id="Vector_4" d="M21.2031 9.84402C21.0276 10.0181 20.7374 10.0136 20.5619 9.83723C17.6209 6.85965 12.8191 6.84157 9.8579 9.79428C6.8967 12.7492 6.87645 17.574 9.8174 20.5493L12.1193 22.8825C12.135 22.8983 12.1508 22.9164 12.1598 22.9345C12.1485 22.9345 12.1373 22.9345 12.126 22.9345C11.7075 22.9639 11.2845 22.9526 10.8682 22.9029L9.17835 21.1891C5.88639 17.8588 5.90664 12.4553 9.22336 9.14993C12.5401 5.84226 17.9157 5.86487 21.2054 9.1974L21.2121 9.20419C21.3877 9.38053 21.3832 9.66767 21.2054 9.84402H21.2031Z" fill="var(--fill-0, #0A9DD9)"/>
<path id="Vector_5" d="M24.7224 12.7583L24.0833 13.4004L22.9605 12.2654C22.785 12.0868 22.7872 11.7974 22.9605 11.6233C23.1383 11.447 23.424 11.447 23.5996 11.6233L24.7201 12.756L24.7224 12.7583Z" fill="var(--fill-0, #0A9DD9)"/>
<path id="Vector_6" d="M15.0805 22.0663C15.0805 22.0663 15.067 22.0731 15.0602 22.0776C14.7835 22.2314 14.5 22.3625 14.2097 22.4756L11.0752 19.299C9.1131 17.3117 8.83408 14.2007 10.4069 11.8969C10.5487 11.6912 10.83 11.6369 11.0347 11.7793C11.2417 11.9218 11.2935 12.2044 11.1517 12.4124C9.8219 14.3545 10.0604 16.9816 11.7165 18.6592L15.0805 22.0663Z" fill="var(--fill-0, #0A9DD9)"/>
<path id="Vector_7" d="M22.83 14.6597L22.8142 14.6755L22.3417 15.1503L22.1887 15.3018L18.6627 11.7319C17.3531 10.407 15.4428 9.94123 13.6719 10.5178C13.4356 10.5946 13.1814 10.4635 13.1026 10.2284C13.0261 9.98871 13.1566 9.73323 13.3929 9.6541C15.4878 8.97132 17.7537 9.52297 19.3018 11.092L22.8255 14.662L22.83 14.6597Z" fill="var(--fill-0, #0A9DD9)"/>
<path id="Vector_8" d="M20.9399 16.5611L20.3008 17.2032L16.7681 13.6242C15.9063 12.7492 14.4955 12.7447 13.6269 13.6106C12.7583 14.4788 12.7516 15.8941 13.6156 16.7668L15.8928 19.0752C16.0683 19.2515 16.0683 19.5409 15.8928 19.7173C15.7173 19.8936 15.4293 19.8914 15.2538 19.7173L12.9744 17.4089C11.7615 16.179 11.7683 14.1894 12.9924 12.9686C14.2164 11.7477 16.1988 11.7567 17.4116 12.9866L20.9421 16.5634L20.9399 16.5611Z" fill="var(--fill-0, #0A9DD9)"/>
<path id="Vector_9" d="M19.0498 18.458L19.034 18.4738L18.5615 18.9486L18.4085 19.1023L14.8667 15.5166C14.6912 15.3402 14.6935 15.0508 14.8667 14.8745C15.0445 14.6981 15.3325 14.7004 15.5058 14.8745L19.0453 18.458H19.0498Z" fill="var(--fill-0, #0A9DD9)"/>
</g>
</g>
</svg>
