<svg preserveAspectRatio="none" width="100%" height="100%" overflow="visible" style="display: block;" viewBox="0 0 69.246 15.6453" fill="none" xmlns="http://www.w3.org/2000/svg">
<g id="Group">
<path id="Vector" fill-rule="evenodd" clip-rule="evenodd" d="M59.3139 8.15047L54.0463 0.560698L53.5108 0.0655654H58.7041L62.2233 5.80142L62.5069 5.56855L64.6333 2.39201C65.1553 1.61201 65.0855 0.705395 64.3407 0.0633049H69.246L63.5734 8.14369V14.0062L64.5702 15.1999H58.4746L59.3341 14.0242C59.3341 12.0708 59.2644 10.0926 59.3139 8.14595V8.15047ZM45.0097 0.0678268C45.4305 0.648873 45.5542 0.852352 45.6015 1.36783C45.6352 1.72731 45.6105 1.93305 45.4957 2.26766L41.5782 13.6828C41.396 14.1509 41.0157 14.6709 40.4644 15.175H44.7397C44.4224 14.8924 44.2199 14.5555 44.1457 14.1554C44.0781 13.7891 44.0804 13.6512 44.1614 13.2985L45.03 10.5877H50.005L50.7813 12.6768C50.8623 12.8961 50.9096 13.0995 50.9299 13.3347C50.9974 14.1147 50.7498 14.7568 50.1333 15.2112H56.8365C56.1794 14.6234 55.5742 14.0062 55.2344 13.2578L50.3403 0.0678268H45.012H45.0097ZM49.276 8.62074H45.7163L47.4421 3.67845L49.276 8.62074ZM31.4548 0.0813915L34.8233 0.0678268H38.9141C41.1642 0.0678268 43.0048 1.91723 43.0048 4.17811V4.68455C43.0048 6.94543 41.1642 8.66821 38.9141 8.7383L37.0487 8.79482C38.5495 8.10073 39.1751 6.35081 38.9883 4.77498C38.8376 3.50889 38.1895 2.29253 37.1072 2.26992L36.4254 2.25636V13.5201C36.4254 13.7394 36.4637 13.8298 36.5784 14.0242C36.7607 14.3317 37.0059 14.6369 37.258 14.9444C37.3232 15.0236 37.3885 15.1027 37.456 15.1818H31.6551C31.7428 15.0756 31.8283 14.967 31.9094 14.854C32.0849 14.6121 32.2401 14.3589 32.3571 14.074C32.4314 13.8909 32.4696 13.7552 32.4696 13.5608V1.46053C32.4471 0.829743 31.8216 0.472524 31.4571 0.0859134L31.4548 0.0813915Z" fill="var(--fill-0, #085CA8)"/>
<path id="Vector_2" fill-rule="evenodd" clip-rule="evenodd" d="M0 0H4.68256L8.61357 11.3248L11.9483 1.94436C12.009 1.58036 11.9573 1.46279 11.8178 1.14853C11.6333 0.7687 11.4353 0.397915 11.2507 0.0180875H14.7497C14.5427 0.784526 14.2367 1.62331 13.9712 2.39653L9.45512 15.5843C8.22204 15.3378 6.8472 14.8472 5.78513 13.8343C4.98408 13.0724 4.70056 12.2065 4.30678 11.1733L0.531035 1.12366C0.382525 0.728004 0.198012 0.370784 0.00224891 0H0ZM18.6987 5.30629V13.398C18.6987 13.7258 18.773 13.7846 18.9755 14.0491L19.8981 15.2564H15.49C15.7375 14.8766 15.9873 14.4945 16.2348 14.1147C16.4261 13.8004 16.5093 13.6942 16.5093 13.3302V2.02575L15.2695 0H19.8373L27.2335 9.57257V1.94436C27.2335 1.58036 27.1615 1.46279 26.9703 1.14853C26.7228 0.7687 26.464 0.397915 26.2142 0.0180875H30.6178L29.6997 1.2254C29.4994 1.48992 29.4229 1.54644 29.4229 1.87653V15.6453C27.7556 15.4237 26.2007 15.0145 24.8191 13.2397L18.6965 5.30629H18.6987Z" fill="var(--fill-0, #EB2227)"/>
</g>
</svg>
