<svg preserveAspectRatio="none" width="100%" height="100%" overflow="visible" style="display: block;" viewBox="0 0 60.4221 43.5" fill="none" xmlns="http://www.w3.org/2000/svg">
<g id="Group 269">
<path id="Vector 9 (Stroke)" fill-rule="evenodd" clip-rule="evenodd" d="M48.417 0H58.1565C59.4078 0 60.4221 1.01435 60.4221 2.26562C60.4221 3.5169 59.4078 4.53125 58.1565 4.53125H50.6826L41.8441 16.3125C41.0934 17.3135 39.6733 17.5164 38.6722 16.7656C37.6712 16.0149 37.4684 14.5948 38.2191 13.5938L48.417 0Z" fill="var(--fill-0, #46C05B)"/>
<circle id="Ellipse 26" cx="37.7659" cy="38.0625" r="5.4375" fill="var(--fill-0, #46C05B)"/>
<circle id="Ellipse 27" cx="19.6408" cy="38.0625" r="5.4375" fill="var(--fill-0, #46C05B)"/>
<foreignObject x="-6" y="-2.75032" width="69.4067" height="50.8125"><div xmlns="http://www.w3.org/1999/xhtml" style="backdrop-filter:blur(5px);clip-path:url(#bgblur_0_0_29_clip_path);height:100%;width:100%"></div></foreignObject><g id="Rectangle 56" filter="url(#filter0_din_0_29)" data-figma-bg-blur-radius="10">
<path d="M4.08254 9.81401C3.70579 8.53305 4.66606 7.24968 6.00127 7.24968H51.4054C52.7406 7.24968 53.7009 8.53305 53.3241 9.81401L45.4381 36.6265C45.1877 37.4777 44.4066 38.0622 43.5193 38.0622H13.8873C13.0001 38.0622 12.2189 37.4777 11.9686 36.6265L4.08254 9.81401Z" fill="url(#paint0_linear_0_29)" shape-rendering="crispEdges"/>
<path d="M4.08254 9.81401C3.70579 8.53305 4.66606 7.24968 6.00127 7.24968H51.4054C52.7406 7.24968 53.7009 8.53305 53.3241 9.81401L45.4381 36.6265C45.1877 37.4777 44.4066 38.0622 43.5193 38.0622H13.8873C13.0001 38.0622 12.2189 37.4777 11.9686 36.6265L4.08254 9.81401Z" fill="var(--fill-1, #46C05B)" fill-opacity="0.2" shape-rendering="crispEdges"/>
<path d="M6.00118 7.74968H51.4055C52.4068 7.74974 53.1263 8.71192 52.844 9.67253L44.9582 36.485C44.7705 37.1233 44.185 37.562 43.5197 37.5622H13.8869C13.2217 37.562 12.6362 37.1233 12.4484 36.485L4.5627 9.67253C4.28033 8.71192 4.9999 7.74974 6.00118 7.74968Z" stroke="url(#paint1_linear_0_29)" shape-rendering="crispEdges"/>
</g>
</g>
<defs>
<filter id="filter0_din_0_29" x="-6" y="-2.75032" width="69.4067" height="50.8125" filterUnits="userSpaceOnUse" color-interpolation-filters="sRGB">
<feFlood flood-opacity="0" result="BackgroundImageFix"/>
<feColorMatrix in="SourceAlpha" type="matrix" values="0 0 0 0 0 0 0 0 0 0 0 0 0 0 0 0 0 0 127 0" result="hardAlpha"/>
<feOffset dy="1"/>
<feGaussianBlur stdDeviation="2"/>
<feComposite in2="hardAlpha" operator="out"/>
<feColorMatrix type="matrix" values="0 0 0 0 0 0 0 0 0 0 0 0 0 0 0 0 0 0 0.12 0"/>
<feBlend mode="normal" in2="BackgroundImageFix" result="effect1_dropShadow_0_29"/>
<feBlend mode="normal" in="SourceGraphic" in2="BackgroundImageFix" result="shape"/>
<feColorMatrix in="SourceAlpha" type="matrix" values="0 0 0 0 0 0 0 0 0 0 0 0 0 0 0 0 0 0 127 0" result="hardAlpha"/>
<feOffset dy="1"/>
<feGaussianBlur stdDeviation="1.5"/>
<feComposite in2="hardAlpha" operator="arithmetic" k2="-1" k3="1"/>
<feColorMatrix type="matrix" values="0 0 0 0 1 0 0 0 0 1 0 0 0 0 1 0 0 0 0.1 0"/>
<feBlend mode="normal" in2="shape" result="effect2_innerShadow_0_29"/>
<feTurbulence type="fractalNoise" baseFrequency="10 10" stitchTiles="stitch" numOctaves="3" result="noise" seed="4151" />
<feColorMatrix in="noise" type="luminanceToAlpha" result="alphaNoise" />
<feComponentTransfer in="alphaNoise" result="coloredNoise1">
<feFuncA type="discrete" tableValues="0 0 0 0 0 0 0 1 1 1 1 1 1 1 1 1 1 1 1 1 1 1 1 1 1 1 1 1 1 1 1 1 1 1 1 1 1 1 1 1 1 1 1 0 0 0 0 0 0 0 0 0 0 0 0 0 0 0 0 0 0 0 0 0 0 0 0 0 0 0 0 0 0 0 0 0 0 0 0 0 0 0 0 0 0 0 0 0 0 0 0 0 0 0 0 0 0 0 0 0 "/>
</feComponentTransfer>
<feComposite operator="in" in2="effect2_innerShadow_0_29" in="coloredNoise1" result="noise1Clipped" />
<feFlood flood-color="rgba(0, 0, 0, 0.05)" result="color1Flood" />
<feComposite operator="in" in2="noise1Clipped" in="color1Flood" result="color1" />
<feMerge result="effect3_noise_0_29">
<feMergeNode in="effect2_innerShadow_0_29" />
<feMergeNode in="color1" />
</feMerge>
<feBlend mode="normal" in="effect3_noise_0_29" in2="effect1_dropShadow_0_29" result="effect3_noise_0_29"/>
</filter>
<clipPath id="bgblur_0_0_29_clip_path" transform="translate(6 2.75032)"><path d="M4.08254 9.81401C3.70579 8.53305 4.66606 7.24968 6.00127 7.24968H51.4054C52.7406 7.24968 53.7009 8.53305 53.3241 9.81401L45.4381 36.6265C45.1877 37.4777 44.4066 38.0622 43.5193 38.0622H13.8873C13.0001 38.0622 12.2189 37.4777 11.9686 36.6265L4.08254 9.81401Z"/>
</clipPath><linearGradient id="paint0_linear_0_29" x1="27.1174" y1="-7.25032" x2="27.1174" y2="38.0622" gradientUnits="userSpaceOnUse">
<stop stop-color="white" stop-opacity="0.1"/>
<stop offset="1" stop-color="white" stop-opacity="0"/>
</linearGradient>
<linearGradient id="paint1_linear_0_29" x1="28.7033" y1="7.24968" x2="28.7033" y2="38.0622" gradientUnits="userSpaceOnUse">
<stop stop-color="white" stop-opacity="0.25"/>
<stop offset="1" stop-color="white" stop-opacity="0"/>
</linearGradient>
</defs>
</svg>
