<svg preserveAspectRatio="none" width="100%" height="100%" overflow="visible" style="display: block;" viewBox="0 0 8.99951 11" fill="none" xmlns="http://www.w3.org/2000/svg">
<g id="Shape">
<path d="M2.30079 0C2.03647 0 1.80073 0.166271 1.71203 0.41526L0.0514707 5.07658C-0.151014 5.64497 0.269004 6.2429 0.872378 6.24521L1.6566 6.24821L1.02199 9.08225C0.856535 9.82112 1.76564 10.3118 2.29251 9.76801L4.27186 7.72509C4.25271 7.71719 4.23326 7.70993 4.21355 7.70332L3.52074 7.47833L3.51487 7.47626C3.36427 7.42317 3.23378 7.32468 3.14145 7.1943C3.04912 7.06392 2.99951 6.90809 2.99951 6.74828C2.99951 6.58847 3.04912 6.43264 3.14145 6.30226C3.23378 6.17188 3.36426 6.07339 3.51487 6.0203L3.52074 6.01823L4.21076 5.79415C4.34327 5.74777 4.46338 5.67169 4.56187 5.57174C4.65826 5.47393 4.7314 5.35584 4.77602 5.22621L4.78045 5.21299L5.00557 4.52087L5.00764 4.51499C5.06084 4.36432 5.15947 4.23391 5.28988 4.1417C5.42029 4.04949 5.57607 4 5.73573 4C5.8954 4 6.05118 4.04949 6.18158 4.1417C6.31199 4.23391 6.41063 4.36432 6.46383 4.51499L6.4659 4.52087L6.69115 5.21342L6.69486 5.22427L7.823 4.0599C8.20715 3.66341 7.92619 3 7.37413 3H5.39475L6.12053 0.822642C6.25543 0.417935 5.9542 0 5.52761 0H2.30079ZM4.92645 7.57284C4.96837 7.6149 5.0075 7.65943 5.04365 7.70614C5.14208 7.83332 5.21842 7.97665 5.26901 8.13018L5.4929 8.81855C5.51163 8.87161 5.54637 8.91755 5.59233 8.95005C5.63829 8.98255 5.69321 9 5.74951 9C5.80582 9 5.86073 8.98255 5.90669 8.95005C5.9477 8.92106 5.97977 8.88136 5.99951 8.83546C6.0019 8.82992 6.00411 8.82428 6.00613 8.81855L6.23002 8.13018C6.29964 7.9209 6.41715 7.73074 6.57321 7.57479C6.72928 7.41885 6.91959 7.30143 7.12903 7.23186L7.81793 7.00814C7.87102 6.98942 7.917 6.95471 7.94952 6.90878C7.98205 6.86286 7.99951 6.80798 7.99951 6.75172C7.99951 6.69546 7.98205 6.64058 7.94952 6.59466C7.917 6.54873 7.87102 6.51402 7.81793 6.4953L7.80415 6.49186L7.11525 6.26814C6.90581 6.19857 6.7155 6.08115 6.55944 5.92521C6.40337 5.76926 6.28586 5.5791 6.21624 5.36982L5.99235 4.68145C5.97362 4.62839 5.93888 4.58245 5.89292 4.54995C5.84695 4.51745 5.79204 4.5 5.73573 4.5C5.67943 4.5 5.62451 4.51745 5.57855 4.54995C5.53259 4.58245 5.49785 4.62839 5.47912 4.68145L5.25523 5.36982L5.24951 5.38686C5.18064 5.58797 5.06737 5.77112 4.91801 5.92269C4.76445 6.07853 4.57688 6.19676 4.37 6.26814L3.6811 6.49186C3.628 6.51058 3.58202 6.54529 3.5495 6.59122C3.51698 6.63714 3.49951 6.69202 3.49951 6.74828C3.49951 6.80454 3.51698 6.85942 3.5495 6.90534C3.58202 6.95127 3.628 6.98598 3.6811 7.0047L4.37 7.22842C4.5798 7.29833 4.77036 7.41628 4.92645 7.57284ZM8.89098 9.60659L8.50826 9.4823C8.3919 9.44365 8.28617 9.37842 8.19947 9.29178C8.11277 9.20515 8.04748 9.0995 8.00881 8.98323L7.88442 8.6008C7.87401 8.57133 7.85471 8.5458 7.82918 8.52775C7.80365 8.5097 7.77314 8.5 7.74186 8.5C7.71058 8.5 7.68007 8.5097 7.65453 8.52775C7.629 8.5458 7.6097 8.57133 7.59929 8.6008L7.47491 8.98323C7.437 9.09868 7.37288 9.2038 7.28757 9.29038C7.20225 9.37696 7.09805 9.44264 6.98311 9.4823L6.60039 9.60659C6.57089 9.61699 6.54535 9.63627 6.52728 9.66179C6.50921 9.6873 6.49951 9.71779 6.49951 9.74904C6.49951 9.7803 6.50921 9.81079 6.52728 9.8363C6.54535 9.86181 6.57089 9.8811 6.60039 9.8915L6.98311 10.0158C7.09967 10.0546 7.20554 10.1202 7.29225 10.2071C7.37897 10.2941 7.44414 10.4001 7.48256 10.5168L7.60695 10.8992C7.61735 10.9287 7.63665 10.9542 7.66219 10.9722C7.68772 10.9903 7.71823 11 7.74951 11C7.78079 11 7.8113 10.9903 7.83683 10.9722C7.86237 10.9542 7.88167 10.9287 7.89208 10.8992L8.01646 10.5168C8.05514 10.4005 8.12042 10.2949 8.20712 10.2082C8.29383 10.1216 8.39956 10.0563 8.51591 10.0177L8.89863 9.89341C8.92813 9.88301 8.95367 9.86373 8.97174 9.83821C8.98981 9.8127 8.99951 9.78221 8.99951 9.75096C8.99951 9.7197 8.98981 9.68921 8.97174 9.6637C8.95367 9.63819 8.92813 9.6189 8.89863 9.6085L8.89098 9.60659Z" fill="var(--fill-0, #4C4D45)"/>
<path d="M2.30079 0C2.03647 0 1.80073 0.166271 1.71203 0.41526L0.0514707 5.07658C-0.151014 5.64497 0.269004 6.2429 0.872378 6.24521L1.6566 6.24821L1.02199 9.08225C0.856535 9.82112 1.76564 10.3118 2.29251 9.76801L4.27186 7.72509C4.25271 7.71719 4.23326 7.70993 4.21355 7.70332L3.52074 7.47833L3.51487 7.47626C3.36427 7.42317 3.23378 7.32468 3.14145 7.1943C3.04912 7.06392 2.99951 6.90809 2.99951 6.74828C2.99951 6.58847 3.04912 6.43264 3.14145 6.30226C3.23378 6.17188 3.36426 6.07339 3.51487 6.0203L3.52074 6.01823L4.21076 5.79415C4.34327 5.74777 4.46338 5.67169 4.56187 5.57174C4.65826 5.47393 4.7314 5.35584 4.77602 5.22621L4.78045 5.21299L5.00557 4.52087L5.00764 4.51499C5.06084 4.36432 5.15947 4.23391 5.28988 4.1417C5.42029 4.04949 5.57607 4 5.73573 4C5.8954 4 6.05118 4.04949 6.18158 4.1417C6.31199 4.23391 6.41063 4.36432 6.46383 4.51499L6.4659 4.52087L6.69115 5.21342L6.69486 5.22427L7.823 4.0599C8.20715 3.66341 7.92619 3 7.37413 3H5.39475L6.12053 0.822642C6.25543 0.417935 5.9542 0 5.52761 0H2.30079ZM4.92645 7.57284C4.96837 7.6149 5.0075 7.65943 5.04365 7.70614C5.14208 7.83332 5.21842 7.97665 5.26901 8.13018L5.4929 8.81855C5.51163 8.87161 5.54637 8.91755 5.59233 8.95005C5.63829 8.98255 5.69321 9 5.74951 9C5.80582 9 5.86073 8.98255 5.90669 8.95005C5.9477 8.92106 5.97977 8.88136 5.99951 8.83546C6.0019 8.82992 6.00411 8.82428 6.00613 8.81855L6.23002 8.13018C6.29964 7.9209 6.41715 7.73074 6.57321 7.57479C6.72928 7.41885 6.91959 7.30143 7.12903 7.23186L7.81793 7.00814C7.87102 6.98942 7.917 6.95471 7.94952 6.90878C7.98205 6.86286 7.99951 6.80798 7.99951 6.75172C7.99951 6.69546 7.98205 6.64058 7.94952 6.59466C7.917 6.54873 7.87102 6.51402 7.81793 6.4953L7.80415 6.49186L7.11525 6.26814C6.90581 6.19857 6.7155 6.08115 6.55944 5.92521C6.40337 5.76926 6.28586 5.5791 6.21624 5.36982L5.99235 4.68145C5.97362 4.62839 5.93888 4.58245 5.89292 4.54995C5.84695 4.51745 5.79204 4.5 5.73573 4.5C5.67943 4.5 5.62451 4.51745 5.57855 4.54995C5.53259 4.58245 5.49785 4.62839 5.47912 4.68145L5.25523 5.36982L5.24951 5.38686C5.18064 5.58797 5.06737 5.77112 4.91801 5.92269C4.76445 6.07853 4.57688 6.19676 4.37 6.26814L3.6811 6.49186C3.628 6.51058 3.58202 6.54529 3.5495 6.59122C3.51698 6.63714 3.49951 6.69202 3.49951 6.74828C3.49951 6.80454 3.51698 6.85942 3.5495 6.90534C3.58202 6.95127 3.628 6.98598 3.6811 7.0047L4.37 7.22842C4.5798 7.29833 4.77036 7.41628 4.92645 7.57284ZM8.89098 9.60659L8.50826 9.4823C8.3919 9.44365 8.28617 9.37842 8.19947 9.29178C8.11277 9.20515 8.04748 9.0995 8.00881 8.98323L7.88442 8.6008C7.87401 8.57133 7.85471 8.5458 7.82918 8.52775C7.80365 8.5097 7.77314 8.5 7.74186 8.5C7.71058 8.5 7.68007 8.5097 7.65453 8.52775C7.629 8.5458 7.6097 8.57133 7.59929 8.6008L7.47491 8.98323C7.437 9.09868 7.37288 9.2038 7.28757 9.29038C7.20225 9.37696 7.09805 9.44264 6.98311 9.4823L6.60039 9.60659C6.57089 9.61699 6.54535 9.63627 6.52728 9.66179C6.50921 9.6873 6.49951 9.71779 6.49951 9.74904C6.49951 9.7803 6.50921 9.81079 6.52728 9.8363C6.54535 9.86181 6.57089 9.8811 6.60039 9.8915L6.98311 10.0158C7.09967 10.0546 7.20554 10.1202 7.29225 10.2071C7.37897 10.2941 7.44414 10.4001 7.48256 10.5168L7.60695 10.8992C7.61735 10.9287 7.63665 10.9542 7.66219 10.9722C7.68772 10.9903 7.71823 11 7.74951 11C7.78079 11 7.8113 10.9903 7.83683 10.9722C7.86237 10.9542 7.88167 10.9287 7.89208 10.8992L8.01646 10.5168C8.05514 10.4005 8.12042 10.2949 8.20712 10.2082C8.29383 10.1216 8.39956 10.0563 8.51591 10.0177L8.89863 9.89341C8.92813 9.88301 8.95367 9.86373 8.97174 9.83821C8.98981 9.8127 8.99951 9.78221 8.99951 9.75096C8.99951 9.7197 8.98981 9.68921 8.97174 9.6637C8.95367 9.63819 8.92813 9.6189 8.89863 9.6085L8.89098 9.60659Z" fill="url(#paint0_linear_0_385)"/>
<path d="M2.30079 0C2.03647 0 1.80073 0.166271 1.71203 0.41526L0.0514707 5.07658C-0.151014 5.64497 0.269004 6.2429 0.872378 6.24521L1.6566 6.24821L1.02199 9.08225C0.856535 9.82112 1.76564 10.3118 2.29251 9.76801L4.27186 7.72509C4.25271 7.71719 4.23326 7.70993 4.21355 7.70332L3.52074 7.47833L3.51487 7.47626C3.36427 7.42317 3.23378 7.32468 3.14145 7.1943C3.04912 7.06392 2.99951 6.90809 2.99951 6.74828C2.99951 6.58847 3.04912 6.43264 3.14145 6.30226C3.23378 6.17188 3.36426 6.07339 3.51487 6.0203L3.52074 6.01823L4.21076 5.79415C4.34327 5.74777 4.46338 5.67169 4.56187 5.57174C4.65826 5.47393 4.7314 5.35584 4.77602 5.22621L4.78045 5.21299L5.00557 4.52087L5.00764 4.51499C5.06084 4.36432 5.15947 4.23391 5.28988 4.1417C5.42029 4.04949 5.57607 4 5.73573 4C5.8954 4 6.05118 4.04949 6.18158 4.1417C6.31199 4.23391 6.41063 4.36432 6.46383 4.51499L6.4659 4.52087L6.69115 5.21342L6.69486 5.22427L7.823 4.0599C8.20715 3.66341 7.92619 3 7.37413 3H5.39475L6.12053 0.822642C6.25543 0.417935 5.9542 0 5.52761 0H2.30079ZM4.92645 7.57284C4.96837 7.6149 5.0075 7.65943 5.04365 7.70614C5.14208 7.83332 5.21842 7.97665 5.26901 8.13018L5.4929 8.81855C5.51163 8.87161 5.54637 8.91755 5.59233 8.95005C5.63829 8.98255 5.69321 9 5.74951 9C5.80582 9 5.86073 8.98255 5.90669 8.95005C5.9477 8.92106 5.97977 8.88136 5.99951 8.83546C6.0019 8.82992 6.00411 8.82428 6.00613 8.81855L6.23002 8.13018C6.29964 7.9209 6.41715 7.73074 6.57321 7.57479C6.72928 7.41885 6.91959 7.30143 7.12903 7.23186L7.81793 7.00814C7.87102 6.98942 7.917 6.95471 7.94952 6.90878C7.98205 6.86286 7.99951 6.80798 7.99951 6.75172C7.99951 6.69546 7.98205 6.64058 7.94952 6.59466C7.917 6.54873 7.87102 6.51402 7.81793 6.4953L7.80415 6.49186L7.11525 6.26814C6.90581 6.19857 6.7155 6.08115 6.55944 5.92521C6.40337 5.76926 6.28586 5.5791 6.21624 5.36982L5.99235 4.68145C5.97362 4.62839 5.93888 4.58245 5.89292 4.54995C5.84695 4.51745 5.79204 4.5 5.73573 4.5C5.67943 4.5 5.62451 4.51745 5.57855 4.54995C5.53259 4.58245 5.49785 4.62839 5.47912 4.68145L5.25523 5.36982L5.24951 5.38686C5.18064 5.58797 5.06737 5.77112 4.91801 5.92269C4.76445 6.07853 4.57688 6.19676 4.37 6.26814L3.6811 6.49186C3.628 6.51058 3.58202 6.54529 3.5495 6.59122C3.51698 6.63714 3.49951 6.69202 3.49951 6.74828C3.49951 6.80454 3.51698 6.85942 3.5495 6.90534C3.58202 6.95127 3.628 6.98598 3.6811 7.0047L4.37 7.22842C4.5798 7.29833 4.77036 7.41628 4.92645 7.57284ZM8.89098 9.60659L8.50826 9.4823C8.3919 9.44365 8.28617 9.37842 8.19947 9.29178C8.11277 9.20515 8.04748 9.0995 8.00881 8.98323L7.88442 8.6008C7.87401 8.57133 7.85471 8.5458 7.82918 8.52775C7.80365 8.5097 7.77314 8.5 7.74186 8.5C7.71058 8.5 7.68007 8.5097 7.65453 8.52775C7.629 8.5458 7.6097 8.57133 7.59929 8.6008L7.47491 8.98323C7.437 9.09868 7.37288 9.2038 7.28757 9.29038C7.20225 9.37696 7.09805 9.44264 6.98311 9.4823L6.60039 9.60659C6.57089 9.61699 6.54535 9.63627 6.52728 9.66179C6.50921 9.6873 6.49951 9.71779 6.49951 9.74904C6.49951 9.7803 6.50921 9.81079 6.52728 9.8363C6.54535 9.86181 6.57089 9.8811 6.60039 9.8915L6.98311 10.0158C7.09967 10.0546 7.20554 10.1202 7.29225 10.2071C7.37897 10.2941 7.44414 10.4001 7.48256 10.5168L7.60695 10.8992C7.61735 10.9287 7.63665 10.9542 7.66219 10.9722C7.68772 10.9903 7.71823 11 7.74951 11C7.78079 11 7.8113 10.9903 7.83683 10.9722C7.86237 10.9542 7.88167 10.9287 7.89208 10.8992L8.01646 10.5168C8.05514 10.4005 8.12042 10.2949 8.20712 10.2082C8.29383 10.1216 8.39956 10.0563 8.51591 10.0177L8.89863 9.89341C8.92813 9.88301 8.95367 9.86373 8.97174 9.83821C8.98981 9.8127 8.99951 9.78221 8.99951 9.75096C8.99951 9.7197 8.98981 9.68921 8.97174 9.6637C8.95367 9.63819 8.92813 9.6189 8.89863 9.6085L8.89098 9.60659Z" fill="url(#paint1_linear_0_385)"/>
</g>
<defs>
<linearGradient id="paint0_linear_0_385" x1="13.4993" y1="5.5" x2="2.71721" y2="-3.32121" gradientUnits="userSpaceOnUse">
<stop stop-color="#FF7733"/>
<stop offset="1" stop-color="#FFB685"/>
</linearGradient>
<linearGradient id="paint1_linear_0_385" x1="0.138016" y1="-2.19987e-07" x2="10.6542" y2="8.87595" gradientUnits="userSpaceOnUse">
<stop stop-color="#FF8E55" stop-opacity="0.4"/>
<stop offset="1" stop-color="#E16324"/>
</linearGradient>
</defs>
</svg>
