<svg preserveAspectRatio="none" width="100%" height="100%" overflow="visible" style="display: block;" viewBox="0 0 33.7102 33.7102" fill="none" xmlns="http://www.w3.org/2000/svg">
<path id="Shape" d="M13.2486 0.245435C13.4361 0.309228 13.6193 0.385111 13.797 0.472606L15.9349 1.52518C16.5151 1.81085 17.1951 1.81085 17.7753 1.52518L19.9132 0.472606C22.1842 -0.645497 24.9316 0.289096 26.0497 2.56008L26.1722 2.83061L26.2769 3.10852L27.0443 5.36452C27.2526 5.9768 27.7334 6.45763 28.3457 6.66592L30.6017 7.43335C32.9982 8.24856 34.28 10.8521 33.4648 13.2486C33.401 13.4361 33.3251 13.6193 33.2376 13.797L32.185 15.9349C31.8994 16.5151 31.8994 17.1951 32.185 17.7753L33.2376 19.9132C34.3557 22.1842 33.4211 24.9316 31.1502 26.0497C30.9724 26.1372 30.7892 26.2131 30.6017 26.2769L28.3457 27.0443C27.7334 27.2526 27.2526 27.7334 27.0443 28.3457L26.2769 30.6017C25.4617 32.9982 22.8581 34.28 20.4617 33.4648C20.2741 33.401 20.0909 33.3251 19.9132 33.2376L17.7753 32.185C17.1951 31.8994 16.5151 31.8994 15.9349 32.185L13.797 33.2376C11.526 34.3557 8.77862 33.4211 7.66052 31.1502C7.57302 30.9724 7.49714 30.7892 7.43335 30.6017L6.66592 28.3457C6.45763 27.7334 5.9768 27.2526 5.36452 27.0443L3.10852 26.2769C0.712072 25.4617 -0.569773 22.8581 0.245435 20.4617C0.309228 20.2741 0.385111 20.0909 0.472606 19.9132L1.52518 17.7753C1.81085 17.1951 1.81085 16.5151 1.52518 15.9349L0.472606 13.797C-0.645497 11.526 0.289096 8.77862 2.56008 7.66052C2.73779 7.57302 2.92099 7.49714 3.10852 7.43335L5.36452 6.66592C5.9768 6.45763 6.45763 5.9768 6.66592 5.36452L7.43335 3.10852C8.24856 0.712072 10.8521 -0.569773 13.2486 0.245435ZM9.80015 3.91364L9.03272 6.16964C8.5745 7.51667 7.51667 8.5745 6.16964 9.03272L3.91364 9.80015C3.8284 9.82915 3.74513 9.86364 3.66435 9.90341C2.63209 10.4116 2.20727 11.6605 2.7155 12.6927L3.76808 14.8306C4.39656 16.1071 4.39656 17.6031 3.76808 18.8796L2.7155 21.0175C2.67573 21.0983 2.64124 21.1816 2.61224 21.2668C2.24169 22.3561 2.82435 23.5395 3.91364 23.9101L6.16964 24.6775C7.51667 25.1357 8.5745 26.1936 9.03272 27.5406L9.80015 29.7966C9.82915 29.8818 9.86364 29.9651 9.90341 30.0459C10.4116 31.0781 11.6605 31.503 12.6927 30.9947L14.8306 29.9422C16.1071 29.3137 17.6031 29.3137 18.8796 29.9422L21.0175 30.9947C21.0983 31.0345 21.1816 31.069 21.2668 31.098C22.3561 31.4685 23.5395 30.8859 23.9101 29.7966L24.6775 27.5406C25.1357 26.1936 26.1936 25.1357 27.5406 24.6775L29.7966 23.9101C29.8818 23.8811 29.9651 23.8466 30.0459 23.8068C31.0781 23.2986 31.503 22.0498 30.9947 21.0175L29.9422 18.8796C29.3137 17.6031 29.3137 16.1071 29.9422 14.8306L30.9947 12.6927C31.0345 12.6119 31.069 12.5287 31.098 12.4434C31.4685 11.3541 30.8859 10.1707 29.7966 9.80015L27.5406 9.03272C26.1936 8.5745 25.1357 7.51667 24.6775 6.16964L23.9101 3.91364L23.8625 3.78732L23.8068 3.66435L23.7031 3.478C23.1433 2.58263 21.9853 2.23904 21.0175 2.7155L18.8796 3.76808C17.6031 4.39656 16.1071 4.39656 14.8306 3.76808L12.6927 2.7155C12.6119 2.67573 12.5287 2.64124 12.4434 2.61224C11.3541 2.24169 10.1707 2.82435 9.80015 3.91364ZM13.6058 20.8367L22.6379 11.8046C23.1261 11.3164 23.9175 11.3164 24.4057 11.8046C24.8494 12.2483 24.8898 12.9428 24.5267 13.4321L24.4057 13.5723L14.4057 23.5723C13.9292 24.0488 13.1721 24.0559 12.6867 23.6189L12.5615 23.4887L8.39484 18.4887C7.95288 17.9583 8.02454 17.1701 8.55489 16.7282C9.03702 16.3264 9.73226 16.3491 10.1867 16.755L10.3154 16.8882L13.6058 20.8367L22.6379 11.8046L13.6058 20.8367Z" fill="var(--fill-0, #16A34A)"/>
</svg>
